<?xml version="1.0" encoding="iso-8859-1"?>
<!-- Uploaded to: SVG Repo, www.svgrepo.com, Generator: SVG Repo Mixer Tools -->
<svg height="800px" width="800px" version="1.1" id="Layer_1" xmlns="http://www.w3.org/2000/svg" xmlns:xlink="http://www.w3.org/1999/xlink" 
	 viewBox="0 0 512 512" xml:space="preserve">
<path style="fill:#FFD67F;" d="M512,256.8l-67.2-54.232L488,127.6l-91.2-7.976l-8-87.728L312,68.584L259.2,0l-49.6,70.184
	l-80-41.472l-4.8,90.912l-89.6,4.784l33.6,86.128L0,252.016l70.4,52.632l-35.2,74.968l88,9.568l4.8,89.32l81.6-38.28L264,512
	l48-71.776l75.2,36.688l6.4-89.32l88-1.592l-32-73.368L512,256.8z"/>
<path d="M238.488,389.72v-31.368c-22.144-0.992-43.616-6.944-56.176-14.208l9.928-38.664c13.88,7.584,33.36,14.528,54.856,14.528
	c18.832,0,31.72-7.264,31.72-20.472c0-12.568-10.576-20.504-35.032-28.76c-35.352-11.888-59.488-28.408-59.488-60.456
	c0-29.08,20.504-51.872,55.856-58.816v-31.4h32.368v29.08c22.144,0.992,37.024,5.6,47.92,10.896l-9.576,37.344
	c-8.584-3.632-23.784-11.248-47.592-11.248c-21.472,0-28.408,9.256-28.408,18.512c0,10.896,11.568,17.84,39.656,28.408
	c39.304,13.88,55.184,32.04,55.184,61.8c0,29.408-20.824,54.512-58.816,61.128v33.688h-32.4V389.72z"/>
</svg>