<svg width="375" height="180" viewBox="0 0 375 180" fill="none" xmlns="http://www.w3.org/2000/svg">
<path d="M76.2152 137.95C52.0219 137.95 33.2752 132.187 19.9752 120.66C6.6752 109.007 0.0251955 91.78 0.0251955 68.98C0.0251955 46.3067 6.6752 29.2067 19.9752 17.68C33.2752 6.02666 52.4652 0.199995 77.5452 0.199995H111.745C136.825 0.199995 156.015 6.02666 169.315 17.68C182.615 29.2067 189.265 46.3067 189.265 68.98C189.265 91.78 182.615 109.007 169.315 120.66C156.015 132.187 137.142 137.95 112.695 137.95H76.2152ZM79.6352 24.9C65.5752 24.9 54.6185 27.4333 46.7652 32.5C38.9119 37.5667 33.9719 45.61 31.9452 56.63H157.345C155.319 45.61 150.379 37.5667 142.525 32.5C134.672 27.4333 123.715 24.9 109.655 24.9H79.6352ZM80.2052 113.25H109.655C123.842 113.25 134.799 110.717 142.525 105.65C150.379 100.583 155.319 92.4767 157.345 81.33H31.9452C33.9719 92.4767 38.9119 100.583 46.7652 105.65C54.6185 110.717 65.7652 113.25 80.2052 113.25ZM206.351 137V1.14999H233.901V137H206.351ZM277.819 179.75V157.9H335.199C342.799 157.9 346.599 154.037 346.599 146.31V137H287.889C276.742 137 268.572 134.213 263.379 128.64C258.312 123.067 255.779 115.847 255.779 106.98V39.15H283.329V103.75C283.329 111.35 287.129 115.15 294.729 115.15H345.649V39.15H374.149V149.73C374.149 158.723 371.552 165.943 366.359 171.39C361.166 176.963 353.059 179.75 342.039 179.75H277.819Z" fill="black"/>
</svg>
